<svg xmlns="http://www.w3.org/2000/svg" version="1.1" width="600px" height="600px" viewBox="0 0 200 200" style="overflow:hidden!important;"><g id="svga-group-wrapper"><g id="svga-group-backs-single"></g><g id="svga-group-humanwrap-move" transform="matrix(1,0,0,1,0,0)"><g id="svga-group-humanwrap"><g id="svga-group-hair-back-move" transform="matrix(1,0,0,1,0,0)"><g id="svga-group-hair-back"><path id="SvgjsPath8281" d="M134.2 50.7s5.7 1.1 10.5 12 2.8 23.4 2.2 32.1-2 36-10.9 49.8-13.1 14.6-23.4 18.4c-10.3 3.7-36.5 2.6-47.6-7.4-11.1-10.1-6.5-26.9-3.7-33 2.8-6.2 72.9-71.9 72.9-71.9" fill="#d6ccab" stroke-width="none" opacity="1"></path><path id="SvgjsPath8282" d="M71.2 121.7s-2.8 7.1-3.4 12c-.6 4.9 2.6 9.5 4.5 12.1 2.1 2.8 6 7.6 6.1 17.2.1 6 41.6-5.5 41.6-5.5 3.7-2.9 11.1-9.6 15.6-20.9 3.8-9.5 3.8-17.8 3.5-22.4-17.2 6.2-34.5 12.5-51.7 18.7l-2.8-4.3-13.4-6.9z" fill="#cfc29a" stroke-width="none" opacity="1"></path></g></g><g id="svga-group-humanbody-back"><path id="SvgjsPath7234" d="m168.5 219.5-1.7-21.5s.7-9-8.8-15.3-23.4-10.1-29.5-14.2c-6.1-4.1-9.2-4.5-9-16.9s.9-40.3.9-40.3H79.6s.7 27.9.9 40.3c.2 12.4-2.9 12.8-9 16.9-6.1 4.1-20 7.9-29.5 14.2S33.2 198 33.2 198l-1.6 21.5h136.9z" fill="#f3d4cf" stroke-width="none" opacity="1"></path></g><g id="svga-group-chinshadow-single"><path id="SvgjsPath7230" d="M100 160.9s9.1.44 19.5-7.32c-.01-.63-.01-1.28 0-1.98.2-12.4.9-40.3.9-40.3H79.6s.7 27.9.9 40.3c.01.7.01 1.36 0 1.98 10.4 7.76 19.5 7.32 19.5 7.32z" fill="#d4958a" stroke-width="none" opacity="0.65"></path></g><g id="svga-group-humanbody-front"><path id="SvgjsPath7235" d="M73.8 175.9c5.1 2.9 11.8 5.2 17.6 5.7.4 0 .4-.6.1-.7-2.8-1.1-5.9-1.7-8.8-2.6-2.9-.9-5.8-2-8.8-2.7-.1-.1-.3.2-.1.3zm35.2 6.2c5.3-.6 11.3-3 15.9-5.8.3-.2.1-.6-.2-.5-2.6.9-5.2 2-7.8 2.9-2.6.9-5.4 1.5-8 2.5-.5.1-.5.9.1.9z" fill="#d4958a" stroke-width="none" opacity="1"></path><path id="SvgjsPath7236" d="m168.4 219.4-2.1-21.4c0-2.2-.5-4.5-1.5-6.6-.9-2.1-2.3-3.9-3.9-5.5s-3.5-2.8-5.5-4c-2-1.2-4.1-2.2-6.2-3.1-4.2-1.9-8.6-3.6-12.9-5.4-2.2-.9-4.3-1.9-6.4-3-1.1-.6-2.1-1.2-3-1.9-1-.6-2-1.2-3-1.9s-2-1.5-2.8-2.6c-.8-1-1.3-2.2-1.7-3.4-.7-2.4-.8-4.8-.8-7.2 0-4.7.2-9.4.3-14.1.2-9.4.6-18.7.9-28l.6.6-20.4-.2-20.4-.1.3-.3.7 28c.1 4.7.3 9.3.4 14 0 2.4-.1 4.7-.8 7.1-.3 1.2-.9 2.3-1.6 3.3-.8 1-1.7 1.8-2.7 2.5s-2 1.3-2.9 2c-.9.6-1.9 1.3-3 1.9-2.1 1.2-4.2 2.1-6.4 3.1-4.3 1.9-8.6 3.6-12.8 5.6-2.1 1-4.2 2.1-6.1 3.2-2 1.2-3.8 2.4-5.4 4-1.6 1.6-2.9 3.4-3.8 5.4-.4 1-.8 2.1-1 3.1-.2 1.1-.4 2.2-.3 3.2v.2l-1.5 21.5-1-1.1 34 .1c11.3 0 22.7.1 34.1.2l34.2.3 34.4.5zm.2.2-34 .4-34.2.3c-11.4.1-22.9.2-34.4.2l-34.4.1h-1.1l.1-1.1 1.7-21.5v.1c-.1-5.1 2.2-9.8 5.7-13.3 1.7-1.7 3.8-3.1 5.8-4.3 2-1.2 4.2-2.2 6.3-3.2 4.3-2 8.7-3.7 13-5.4 2.1-.9 4.3-1.8 6.3-2.9 1-.5 1.9-1.1 3-1.8 1-.6 2-1.2 2.9-1.9.9-.6 1.8-1.4 2.4-2.2.7-.9 1.2-1.9 1.5-2.9.6-2.1.8-4.5.8-6.8 0-4.6-.1-9.3-.2-14l-.6-28v-.3h.3l20.4-.1 20.4-.2h.6v.6c-.1 9.3-.2 18.7-.4 28-.1 4.7-.2 9.4-.2 14 .1 2.3.2 4.6.8 6.7.3 1.1.8 2 1.4 2.9.6.8 1.4 1.6 2.4 2.2.9.6 1.9 1.3 2.9 1.9 1 .7 1.9 1.3 2.9 1.8 2 1.1 4.1 2.1 6.3 3 4.3 1.8 8.6 3.6 12.9 5.6 2.1 1 4.2 2.1 6.2 3.3 2 1.2 4 2.6 5.7 4.3 3.4 3.4 5.6 8.1 5.4 13v-.1l1.4 21.6zm-112.8-.4 1.9-13.8.1 13.8h-2zm88.6 0-1.9-13.8-.1 13.8h2z" fill="#c5796d" stroke-width="none" opacity="1"></path></g><g id="svga-group-clothes-single"><path id="SvgjsPath7792" d="M172 220s-1.3-17.2-2.6-22.7-4-12.6-5.1-13.4c-1.1-.9-1.9-.4-1.9-.4s-1.1-.9-4.5-3.4-18.5-7.2-20.4-8.5c-1.9-1.3-10.2-4.7-10.2-4.7l.2-2.3s-2.6-1.9-3.4-3.4c-.8-1.5-1.3-3.6-1.3-3.6l-.4-2.5s-.6 2-1 3.3-1 6.5-1.5 8.8c-.3 1.5-2.2 4.6-3.5 6.1-1.5 1.6-3.8 3-6.1 4.2-3.4 1.8-4.8 2.4-5.4 3.1-.6.7-.9 2.9-1.9 6l-1.1 2.6s-2.9-3.9-4.5-6.4c-1.6-2.5-3.1-3.4-4-3.4s-5.7.1-6.1-.2-1.8-1.7-2.4-2.8c-.7-1.1-3.4-8.1-4.1-9.5-.7-1.4-2-7.2-2.4-8.5-.3-1.3-.6-3.1-.6-3.1l-.4 1.1s-.8 3.4-1.7 4.9c-.8 1.5-3.4 3.4-3.4 3.4l.2 2.3s-8.3 3.4-10.2 4.7c-1.9 1.3-17 6-20.4 8.5s-4.5 3.4-4.5 3.4-.8-.4-1.9.4c-1.1.9-3.8 7.9-5.1 13.4S28 220 28 220" fill="#732f8e" stroke-width="none" opacity="1" stroke="none"></path><path id="SvgjsPath7793" d="M163.9 185.7c-.1-.4-.8-.2-.7.2 2.9 9.4 4.1 19.1 5.7 28.8 0 .2.4.1.4-.1.6-10-1.9-19.6-5.4-28.9zm-3.1-1.1c-2.3 4.8-3.6 10.2-3.9 15.5 0 .2.3.2.3 0 .8-5.4 2.1-10.3 3.9-15.5 0 0-.2-.1-.3 0zm-59.6 12.5c-.2-.1-.4-.2-.2-.4.3-.3-.1-.7-.4-.6-1 .4-.1 2.1.7 1.4.1-.1 0-.3-.1-.4zm-.4 16.4c0-.2-.2-.3-.4-.1-.6.5 0 1.6.7 1.3.1 0 .1-.2 0-.2-.1-.4-.3-.6-.3-1zm6.9-31.2c-.3 0-.7-.1-.7-.5 0-.2-.4-.3-.4-.1-.1.4 0 .7.3.9.3.2.7.2.9 0 .2-.1.1-.3-.1-.3zm-22.9-3.5c-2.3 1.4-4.4 3.4-6.4 5.2-1.9 1.9-4.1 3.8-5.4 6.2-.1.2.1.3.3.2 2.1-1.8 3.7-4 5.7-5.9 2-1.9 4.2-3.5 6.2-5.4.1-.1-.2-.4-.4-.3zm-45.5 5.6c1 7.4 3.8 14.6 5 22.1 0 .1.1.1.1 0-.4-7.2-1-15.8-4.7-22.1-.1-.3-.5-.2-.4 0zm-2.7.6c-4 7.9-6.2 17.4-6.2 26.2 0 .2.4.3.4.1 1.3-9.1 3.3-17.3 6.3-26 .2-.4-.3-.6-.5-.3zm93.5 4.3c-2.5-8.2-4.1-15.7-4.3-24.3 0-.3-.4-.3-.5 0-.7 7.7.5 16.3 3.7 23.5-2.5-3.1-5.3-6.1-8.1-8.8-2-1.9-4.2-4.1-7.2-2.9-.3.1-.2.6.2.6 3.5-.8 6.7 4.4 8.9 6.5 2.2 2.1 4.3 4.4 6.6 6.3.3.2.8-.1.6-.4.1-.2.2-.3.1-.5zm-12.8-14.1c3.4-3.2 5.9-8.9 4.8-13.7-.1-.2-.4-.2-.4.1-.3 2.4-.3 4.8-1.2 7.1-.8 2.3-2.1 4.4-3.5 6.3-.1.1.2.3.3.2zm12.4-3.9c8.6 4.8 18.3 8.1 27.5 11.5.3.1.5-.4.2-.5-8.4-4.8-17.8-9.7-27.4-11.9-.4-.1-.8.6-.3.9z" fill="#84449d" stroke-width="none" opacity="1" stroke="none"></path><path id="SvgjsPath7794" d="M158.3 201.6c-.2 2.9-.3 5.7-.3 8.6v4.3c.1 1.4.1 2.9.2 4.3.1-1.4.2-2.9.3-4.3l.3-4.3.6-8.5c.2-2.8.5-5.6 1-8.4.3-1.4.6-2.8 1-4.1.4-1.4.8-2.7 1.4-4.1-1.4 2.5-2.4 5.2-3.1 8-.9 2.8-1.2 5.6-1.4 8.5zm-51.2-20.3c.6 0 1.2.5 1.2 1.2s-.5 1.2-1.2 1.2-1.2-.5-1.2-1.2.6-1.2 1.2-1.2zm-6.2 14.4c.6 0 1.2.5 1.2 1.2s-.5 1.2-1.2 1.2-1.2-.5-1.2-1.2.6-1.2 1.2-1.2zm-.1 17.1c.6 0 1.2.5 1.2 1.2s-.5 1.2-1.2 1.2-1.2-.5-1.2-1.2.6-1.2 1.2-1.2zm15.7-31.9s.1-.1 0 0c.1-.1 0 0 0 0zm55 29.3c-.2-3.3-.5-6.6-.9-9.8-.4-3.3-1.3-6.5-2.3-9.7-.5-1.6-1.1-3.1-1.8-4.7-.4-.8-.7-1.5-1.2-2.3-.4-.5-.8-.8-1.3-1-.3-.1-.6-.2-.9-.2h-.4l-3.6-2.8c-.6-.5-1.4-1-2.1-1.4-.8-.4-1.5-.8-2.2-1.1-3-1.4-6.1-2.5-9.1-3.6l-4.6-1.7c-.8-.3-1.5-.6-2.2-.9-.2-.1-.4-.2-.5-.2-.1-.1-.3-.1-.5-.3-.4-.2-.8-.4-1.1-.6-2.8-1.4-5.7-2.5-8.6-3.7l.1-1.9c0-.2-.1-.4-.2-.5-.7-.5-1.4-1.1-2.1-1.7-.3-.3-.6-.6-.9-1-.3-.3-.5-.7-.7-1.1-.4-.8-.7-1.7-.9-2.6-.2-.9-.3-1.8-.5-2.7 0-.1-.1-.2-.2-.3-1-.8-2.2-.9-2.2-.9-.2 1.8.3 4.7.4 5.4 0 .2-.1.4-.1.6l-.7 4.9c-.1.8-.2 1.6-.4 2.4-.2.7-.5 1.5-.9 2.2-.8 1.4-1.6 2.8-2.7 4-2.3 2.3-5.3 3.6-8.2 5.1-.7.4-1.5.7-2.2 1.2-.4.2-.8.5-1 .9-.3.4-.4.8-.5 1.2-.5 1.6-.9 3.2-1.4 4.7l-.7 1.7-2.6-3.9c-1.1-1.5-1.9-3.3-3.6-4.6-.4-.3-.9-.6-1.5-.8-.3-.1-.7-.1-.9-.1h-.7l-2.8-.1c-.5 0-.9 0-1.4-.1-.2 0-.4 0-.6-.1-.1 0-.1-.1-.2-.2-.6-.6-1.2-1.3-1.7-2.1-.4-.6-.8-1.6-1.1-2.4l-1.1-2.6-2.1-5.2c-.6-1.7-1-3.6-1.5-5.4l-.5-1.6-.1-.3c.1-.2.2-.6.3-1.1.1-1 .2-4 .2-4s-2 .4-2.5.8c-.2.1-.5.3-.6.6l-.4 1.1v.1c-.2.8-.4 1.6-.7 2.3-.2.8-.5 1.5-.9 2.2-.3.6-.8 1.1-1.4 1.7-.6.5-1.2 1.1-1.8 1.5-.3.2-.4.6-.4.9l.2 1.6c-2.8 1.2-5.5 2.3-8.3 3.7-.4.2-.7.4-1.1.6l-.3.2-.2.1c-.1.1-.3.1-.5.2-.7.3-1.5.6-2.2.9l-4.6 1.7c-3.1 1.1-6.1 2.3-9.1 3.6-.8.3-1.5.7-2.2 1.1-.7.4-1.6.9-2.2 1.4l-3.5 2.8h-.4c-.3 0-.6.1-.9.2-.5.2-1 .5-1.3 1-.6.8-.9 1.6-1.2 2.3-.7 1.5-1.3 3.1-1.8 4.7-1 3.1-1.9 6.4-2.3 9.7-.4 3.3-.7 6.6-.9 9.8-.2 3.3-.4 6.6-.6 9.8h.2c.3-3.3.7-6.5 1.1-9.8.4-3.2.8-6.5 1.3-9.7.5-3.2 1.5-6.3 2.6-9.4l1.8-4.5c.3-.7.7-1.5 1.1-2 .1-.2.4-.4.6-.4.1 0 .2-.1.3-.1h.2l.6-.1c.4 1.2.8 2.4 1.2 3.7.4 1.5.8 2.9 1.1 4.4.7 3 1.2 6 1.6 9 .4 3 .8 6.1 1.1 9.1.2 1.5.3 3.1.5 4.6.2 1.5.3 3.1.4 4.6.2-3.1.1-6.2-.1-9.2-.2-3.1-.5-6.1-.9-9.2-.4-3.1-1-6.1-1.8-9.1-.8-2.7-1.7-5.4-3-8h.2l3.9-2.9c.7-.5 1.2-.9 1.9-1.2.7-.4 1.4-.7 2.2-1 3-1.2 6-2.3 9.1-3.5l4.6-1.7c.8-.3 1.5-.6 2.3-.9l.6-.3.3-.2.2-.1c.3-.2.7-.4 1-.5 2.7-1.3 5.6-2.5 8.4-3.7.1 1.4.2 2.8.1 4.1 0 1.3-.1 2.5-.2 3.8-.2 1.2-.4 2.4-.7 3.7-.5 2.5-.9 5.1-1.4 7.6-.5 2.5-.8 5.1-1.3 7.6 0 .3 0 .6.2.8.3.4 1 .4 1.4.1 1.5-1.3 2.9-2.7 4.3-4.1s2.8-2.8 4.1-4.2c.7-.7 1.3-1.5 1.9-2.3l.9-1.2c.2-.4.5-.8.8-1.1l.5-.5c2.3 1.4 4.8 2.3 7.4 2.9.9.2 1.9.4 2.8.5.6 1.8 1.4 3.4 2.3 5l.6 1.2c.2.4.3.9.6 1.3.3.7.7 1.4 1.1 2.2-.1.3-.2.5-.3.9-.2 1.4-.1 2.8-.1 4.1l.2 4c.1 1.3 0 2.6 0 4 0 1.3 0 2.7.1 4l.1 4c.1 1.3.1 2.7.2 4 .1-1.3.2-2.7.3-4l.2-4c.1-2.7.2-5.3.1-8.1-.1-1.4-.2-2.7-.2-4-.1-1.3-.2-2.7-.1-3.9 0-.5.4-1.2.7-1.8l.9-1.8c.5-1.1 1.1-2.1 1.5-3.1.3.1.6 0 .7-.3l1-2.6c.1-.3.1-.5.2-.8 1.1.1 2.1 0 3.2-.2.9-.1 1.8-.4 2.7-.6-1.4 2.6-2.8 5.2-4.1 7.8-.7 1.4-1.6 2.6-2.4 4-.4.7-.8 1.5-.8 2.4 0 .8 0 1.6.1 2.4.2 3.1.5 6.2.7 9.3.1 1.5.1 3.1.1 4.6.1 1.6.1 3.1.2 4.7.2-3.1.4-6.2.4-9.4-.1-3.1-.3-6.2-.5-9.3-.1-.8-.1-1.6-.1-2.3 0-.7.3-1.3.6-2 .7-1.3 1.6-2.7 2.2-4.1 1.2-2.7 2.4-5.4 3.5-8.2.3-.1.6-.2.8-.2 1.2-.4 2.3-.9 3.3-1.6 1-.6 1.9-1.4 2.8-2.2-1.1.5-2 1.1-3.1 1.5-1.1.5-2.2 1-3.3 1.4-2.1.8-4.2 1.3-6.4 1.8.3-1.3.7-2.6 1-3.8.1-.4.2-.8.4-1 .2-.3.5-.5.8-.7l2.1-1.2c.7-.3 1.3-.7 2-1 .9-.1 1.8-.1 2.7.1.6.1 1.1.3 1.5.7.5.4.9.8 1.3 1.2l1 1c1.3 1.4 2.5 3 3.8 4.5 1.7 2 3.7 3.4 5.7 4.9 2 1.5 4.1 2.8 6.2 4.1.2.1.5.2.7.1.5-.1.9-.6.7-1.2-.5-2.2-1.1-4.4-1.6-6.6s-1.1-4.4-1.7-6.6c-.6-2.2-1.2-4.4-1.7-6.6-.4-1.9-.8-3.8-1-5.7 2.7 1.2 5.5 2.4 8 3.8.4.2.7.4 1 .6.1.1.3.2.6.3s.4.2.6.3c.8.4 1.5.6 2.3.9l4.6 1.7 4.6 1.7c1.5.6 3 1.1 4.5 1.8.7.3 1.5.6 2.1 1 .7.4 1.3.7 1.9 1.2l3.9 2.9.9.1h.2c.1 0 .2 0 .4.1s.5.3.6.4c.4.5.8 1.3 1.1 2 .7 1.5 1.2 3 1.8 4.5 1.1 3.1 2.1 6.2 2.6 9.4s.9 6.5 1.3 9.7l1.1 9.8h.2c.2-3.2 0-6.5-.3-9.7zm-89.2-28.1c-.4.4-.7.7-1 1.1-.3.4-.6.7-.9 1.1-.7.7-1.4 1.4-2.1 2-1.4 1.4-2.9 2.6-4.3 3.9l-2.3 2.1c.3-1.6.6-3.2.8-4.9.4-2.5.8-5.1 1.2-7.6.2-1.2.4-2.6.5-3.9.1-1.3.1-2.6 0-3.9-.1-1.6-.3-3.1-.6-4.6.2-.2.3-.5.2-.8l-.2-1.8c.5-.4 1-.9 1.5-1.3.6-.6 1.3-1.3 1.8-2.2.4-.8.7-1.6.9-2.3l.5 1.8c.5 1.8.9 3.7 1.6 5.5l2.2 5.3 1.1 2.6.6 1.3.3.7c.1.2.3.5.4.7.6.9 1.2 1.6 2 2.3l.1.1c-1.5.8-3 1.6-4.3 2.8zm8.8 2c-2.5-.6-5-1.2-7.6-1.9.9-1 2.1-1.9 3.2-2.6l.1.1c.1.1.1.1.3.2.2.1.4.1.4.1.3.1.6.1.8.1H93.7c.3.1.7.3 1 .5 1.3 1 2.3 2.7 3.4 4.2l.5.6c-1.2-.2-2.4-.3-3.7-.5-1.2-.3-2.5-.5-3.8-.8zm8.7 8.3c-.3.6-.7 1.1-1 1.7-.2.3-.3.6-.5.8-.1-.7-.3-1.5-.5-2.2-.1-.5-.3-.9-.4-1.4-.2-.5-.4-.9-.6-1.4-.9-1.6-1.9-3.2-3.1-4.6.4 0 .8.1 1.2.1 1.3.1 2.6 0 3.8-.2l2.8 3.9c0 .1.1.1.2.1l-1.9 3.2zm28.3-15.3.7 3.3c.5 2.2 1 4.4 1.5 6.7.4 1.4.7 2.9 1 4.3-1.4-.9-2.8-1.8-4.1-2.7l-3-2.1c-1-.7-1.9-1.5-2.7-2.3-1.7-1.8-3.4-3.6-5.3-5.2-.5-.4-1-.8-1.5-1.1-.6-.4-1.2-.6-1.9-.6-.8-.1-1.5 0-2.2.2 2.1-1.1 4.2-2.3 5.9-4 1.2-1.2 2-2.7 2.8-4.1.4-.7.8-1.5 1-2.3.2-.8.3-1.6.5-2.4l.8-4.9c.1-.4.1-.8.2-1.2l.3-1.2.2-.6c.1.3.1.6.2 1 .2.9.5 1.9.9 2.8.2.4.4.9.7 1.3.3.4.6.8 1 1.1.6.6 1.2 1.2 1.9 1.7l-.2 2c0 .2.1.5.3.6 0 2.1.2 4.2.5 6.3.1 1.2.3 2.3.5 3.4z" fill="#540f6f" stroke-width="none" opacity="1" stroke="none"></path></g><g id="svga-group-head" transform="matrix(1,0,0,1,0,0)"><g id="svga-group-ears-left-move" transform="matrix(1,0,0,1,0,0)"><g id="svga-group-ears-left"><path id="SvgjsPath7183" d="M64.2 96.3c-.2-.3-3.1-4-5.5-6.3-2.5-2.3-3.2-2.2-4.4-.8s-2.7 8.5-2.3 11.7 3.3 8.2 4.9 11c1.6 2.8 3.1 6.3 4.8 6 1.8-.3 4.2-4.3 5.3-7.3 1.2-3 .6-10.3-2.8-14.3z" fill="#f3d4cf" stroke-width="none" opacity="1"></path><path id="SvgjsPath7184" d="M67.9 104.8c.1.8.2 1.6.2 2.4s0 1.6-.2 2.4l-.3 1.2c-.1.4-.3.7-.4 1-.3.7-.6 1.3-.9 2-.7 1.2-1.4 2.4-2.4 3.4-.5.5-1 1-1.7 1.2-.3.1-.8.1-1.2 0-.4-.2-.7-.4-1-.7-1.2-1.2-1.8-2.6-2.5-4s-1.4-2.7-2.1-4.1c-.7-1.4-1.4-2.8-2-4.2-.3-.7-.6-1.4-.9-2.2-.3-.7-.5-1.5-.6-2.3-.2-1.6 0-3.2.1-4.7.2-1.5.4-3 .8-4.5.2-.7.4-1.5.7-2.2.1-.2.2-.3.3-.5s.2-.4.3-.5c.2-.3.5-.5.8-.7s.7-.3 1.1-.3c.4.1.7.2 1.1.4.6.4 1.1.9 1.7 1.4 2 2.1 3.7 4.5 5.6 6.8 1.8 2.5 2.9 5.6 3.5 8.7zm-9.6-14.6c-1-.8-2.2-1.7-2.9-1.2-.2.1-.4.3-.6.6-.1.1-.2.2-.2.3-.1.1-.1.3-.2.4-.3.6-.5 1.2-.7 1.9-.4 1.3-.8 2.8-1.1 4.2-.3 1.4-.5 3-.4 4.4.1.7.3 1.5.5 2.2l.9 2.1c.6 1.4 1.4 2.7 2.2 4s1.6 2.6 2.3 3.9c.4.7.7 1.3 1.1 1.9.4.6.8 1.2 1.2 1.6s.8.6 1.2.4.9-.5 1.3-1c.8-.9 1.5-2 2.2-3.2l.9-1.8c.1-.3.3-.6.4-.9l.2-.4c0-.2.1-.3.1-.5.3-1.3.3-2.8.3-4.3-.1-1.5-.3-3-.8-4.5s-1.2-2.9-2.1-4c-1.7-2.2-3.7-4.4-5.8-6.1z" fill="#e4b3ab" stroke-width="none" opacity="1"></path><path id="SvgjsPath7185" d="M54.1 102.4c-.2-2.1-.4-7.4.8-9 2-2.7 5.6 6.1 6.5 8.8 0 .1.1.2.1.2.1.3-.1.7-.4.6-.4-.2-.8-.6-1.2-.8-1.1-.5-1.5.4-1.2 1.7.4 1.7 1.3 2.7 2.1 4 .1.2 0 .4-.2.3-1.5-.9-3.3-4.2-2.9-6.2.3-1.8 1.8-1.7 2.9-.8-.7-1.6-1.4-3.1-2.3-4.5-.6-.9-1.1-1.9-2-2-1.1-.2-.9.3-1.1 1.7-.8 4.6-.3 9.7 2.4 13.7.1.1 0 .2-.1.1-2-2.2-3.1-4.7-3.4-7.8z" fill="#d4958a" stroke-width="none" opacity="1"></path></g></g><g id="svga-group-ears-right-move" transform="matrix(1,0,0,1,0,0)"><g id="svga-group-ears-right"><path id="SvgjsPath7186" d="M135.8 96.3c.2-.3 3.1-4 5.5-6.3 2.5-2.3 3.2-2.2 4.4-.8s2.7 8.5 2.3 11.7-3.3 8.2-4.9 11c-1.6 2.8-3.1 6.3-4.8 6-1.8-.3-4.2-4.3-5.3-7.3-1.2-3-.6-10.3 2.8-14.3z" fill="#f3d4cf" stroke-width="none" opacity="1"></path><path id="SvgjsPath7187" d="M135.7 96.3c1.8-2.3 3.5-4.7 5.6-6.8.5-.5 1-1 1.7-1.4.3-.2.7-.4 1.1-.4.4-.1.8.1 1.1.3.3.2.6.5.8.7.1.1.2.3.3.5s.2.3.3.5c.3.7.5 1.4.7 2.2.4 1.5.6 3 .8 4.5.1 1.5.3 3.1.1 4.7-.1.8-.3 1.6-.6 2.3-.3.8-.6 1.5-.9 2.2-.6 1.4-1.3 2.8-2 4.2-.7 1.4-1.4 2.7-2.1 4.1-.7 1.4-1.4 2.8-2.5 4-.3.3-.6.6-1 .7s-.9.2-1.2 0c-.7-.2-1.2-.7-1.7-1.2-1-1-1.7-2.2-2.4-3.4-.3-.6-.6-1.3-.9-2-.1-.3-.3-.7-.4-1l-.3-1.2c-.1-.8-.2-1.6-.2-2.4s.1-1.6.2-2.4c.5-3.3 1.6-6.4 3.5-8.7zm.1.1c-.9 1.1-1.6 2.5-2.1 4s-.7 3-.8 4.5 0 3 .3 4.3c0 .2.1.3.1.5l.2.4c.1.3.3.6.4.9l.9 1.8c.6 1.2 1.4 2.3 2.2 3.2.4.4.9.8 1.3 1 .4.2.8 0 1.2-.4s.8-1 1.2-1.6.8-1.3 1.1-1.9c.7-1.3 1.6-2.6 2.3-3.9.8-1.3 1.5-2.6 2.2-4l.9-2.1c.3-.7.5-1.5.5-2.2.1-1.5-.1-3-.4-4.4-.3-1.4-.6-2.9-1.1-4.2-.2-.7-.5-1.3-.7-1.9-.1-.1-.1-.3-.2-.4-.1-.1-.1-.2-.2-.3l-.6-.6c-.7-.6-1.8.4-2.9 1.2-2 1.6-4 3.8-5.8 6.1z" fill="#e4b3ab" stroke-width="none" opacity="1"></path><path id="SvgjsPath7188" d="M145.9 102.4c.2-2.1.4-7.4-.8-9-2-2.7-5.6 6.1-6.5 8.8 0 .1-.1.2-.1.2-.1.3.1.7.4.6.4-.2.8-.6 1.2-.8 1.1-.5 1.5.4 1.2 1.7-.4 1.7-1.3 2.7-2.1 4-.1.2 0 .4.2.3 1.5-.9 3.3-4.2 2.9-6.2-.3-1.8-1.8-1.7-2.9-.8.7-1.6 1.4-3.1 2.3-4.5.6-.9 1.1-1.9 2-2 1.1-.2.9.3 1.1 1.7.8 4.6.3 9.7-2.4 13.7-.1.1 0 .2.1.1 2-2.2 3.1-4.7 3.4-7.8z" fill="#d4958a" stroke-width="none" opacity="1"></path></g></g><g id="svga-group-faceshape-wrap"><g id="svga-group-faceshape-single"><path id="SvgjsPath7215" d="M141 85.4c-1.2-28.5-19.61-43.51-40.91-43.51S60.2 57 59 85.4c0 0-.4 25.9 5.4 37.3 14.4 28.4 35.62 26.95 35.62 26.95s21.18 1.45 35.58-26.95c5.8-11.4 5.4-37.3 5.4-37.3z" fill="#f3d4cf" stroke-width="none" opacity="1"></path><path id="SvgjsPath7216" d="M135.6 122.7c5.8-11.4 5.49-37.32 5.49-37.32-1.2-28.5-19.79-44.08-41.09-44.08S60.2 57 59 85.4c0 0-.4 25.9 5.4 37.3 14.4 28.4 35.6 27.5 35.6 27.5s21.2.9 35.6-27.5zm-41.7 25.17c-2-.51-4-1.31-6-2.22-3.9-1.82-7.4-4.45-10.5-7.48-1.6-1.52-3-3.14-4.4-4.85 0 0-3.2-4.45-3.9-5.36-.3-.51-.6-.91-.9-1.42-.3-.51-.6-.91-.9-1.42l-1.8-3.24s-.9-2.12-1.1-2.63-.4-1.01-.5-1.62c-.2-.51-.3-1.11-.5-1.62-.6-2.12-1.1-4.35-1.5-6.57s-.8-4.45-1-6.78c-.6-4.55-.9-9.1-1.1-13.75v-3.34l.1-1.72c0-.61.1-1.11.1-1.72.1-1.11.3-2.22.4-3.44.1-.61.2-1.11.3-1.72 0 0 .3-1.31.4-1.62 1-4.45 2.5-8.8 4.8-12.64.5-1.01 1.2-1.92 1.8-2.83l1-1.31c.3-.4.7-.91 1.1-1.31 1.4-1.72 3-3.34 4.7-4.75 3.4-2.83 7.3-4.96 11.4-6.47 4.1-1.42 8.4-2.12 12.8-2.22 2.2-.1 11 1.11 11.3 1.21 4.91 1.22 9.7 3.54 13.3 5.97.9.61 1.8 1.31 2.6 2.02l1.3 1.11 1.2 1.11c1.6 1.62 3 3.34 4.3 5.16.3.51 1.9 2.83 1.9 2.83.3.51 1.6 3.03 1.6 3.03.5 1.01.9 2.12 1.4 3.14.4 1.11.8 2.12 1.1 3.24.4 1.11.6 2.22.9 3.34.1.61.7 3.34.7 3.34l.28 1.94c.1.61.18 2.74.18 2.74l.06.93s-.01 8.78-.31 12.32-.51 6.76-1.11 10.3c-.3 1.72-.7 3.54-1.1 5.26-.4 1.72-.9 3.44-1.5 5.06s-1.2 3.24-2 4.75l-1.3 2.22c-.4.81-.9 1.52-1.4 2.22-1.9 2.93-4 5.66-6.3 8.19s-4.8 4.85-7.5 6.88c-1.4 1.01-2.8 1.92-4.2 2.73-1.5.81-3 1.52-4.5 2.12-.4.2-2 .71-2.4.81-.8.2-1.6.4-2.4.61s-6.63.63-10.9-.53z" fill="#c5796d" stroke-width="none" opacity="1"></path></g></g><g id="svga-group-mouth-single-move" transform="matrix(1,0,0,1,0,0)"><g id="svga-group-mouth-single"><path id="SvgjsPath7171" d="M90 128.1s2 2.6 4 3.8 9.4 1.3 13.4-.2 7.5-6.6 8.1-7.8c0 0-2.9 1.9-7.1 1.5-4.3-.3-13.7.8-15.6 1.6s-2.8 1.1-2.8 1.1z" fill="#da7c87" stroke-width="none" opacity="1" transform="translate(0 3)"></path><path id="SvgjsPath7172" d="M117.2 121.6c-.5-.4-1-.6-1.6-.4-.4.1-.4.7-.1.8.1.1.2.1.3.2l-.6.6c-.7.8-2.3 2.2-5.3.8-3-1.4-5.1-1.8-7.1-.5s-2.7.9-4.6.2c-1.9-.6-4.3.4-5.5 1.7-1.2 1.3-2.2 2.6-4.1 2s-.8.5-.8.5c.2.1 1.5 1.1 2.5 1.4 1.1.2 2.1-.5 4.5-1.2s8.1-1.2 11.9-1.1c5.4.2 6.8-.6 8.3-1.8.7-.6 1.2-1.1 1.5-1.6.1.2.2.4.4.5.3.2.8.1.9-.3.2-.8-.2-1.4-.6-1.8z" fill="#d26d79" stroke-width="none" opacity="1" transform="translate(0 3)"></path><path id="SvgjsPath7173" d="M95.7 129.5c3.4 0 7.4.1 10.8-.9.5-.1.5-.8 0-1-3.4-1-7.7-.1-10.9 1.2-.3.2-.3.7.1.7z" fill="#e28c96" stroke-width="none" opacity="1" transform="translate(0 3)"></path></g></g><g id="svga-group-eyes-left-move" transform="matrix(1,0,0,1,0,0)"><g id="svga-group-eyes-left"><g id="svga-group-eyesback-left"><path id="SvgjsPath7295" d="M90.9 101.3s-.3-2.5-1-3.8-3.7-4.4-7-5c-4.9-1-9.3 1.7-9.3 1.7s0 2.4 1.5 4.1c1.4 1.7 3.9 2.6 4.9 2.7s4.6.3 6.5 0c1.3-.2 2.8-.2 3.4 0 .5.2 1 .3 1 .3z" fill="#ffffff" stroke-width="none" opacity="1"></path></g><g id="svga-group-eyesiriswrapper-left" transform="matrix(1,0,0,1,0,0)"><g id="svga-group-eyesiriscontrol-left" transform="matrix(1,0,0,1,0,0)"><g id="svga-group-eyesiris-left"><path id="SvgjsPath7251" d="M82 91.2c2.9 0 5.2 2.3 5.2 5.2s-2.3 5.2-5.2 5.2-5.2-2.3-5.2-5.2 2.3-5.2 5.2-5.2z" fill="#4e60a3" stroke-width="none" opacity="1"></path><path id="SvgjsPath7252" d="M82 101.8c-3 0-5.4-2.4-5.4-5.4S79 91 82 91s5.4 2.4 5.4 5.4-2.4 5.4-5.4 5.4zm0-10.3c-2.7 0-4.9 2.2-4.9 4.9s2.2 4.9 4.9 4.9 4.9-2.2 4.9-4.9-2.2-4.9-4.9-4.9z" fill="#253984" stroke-width="none" opacity="1"></path><path id="SvgjsPath7253" d="M82 93.6c1.5 0 2.8 1.3 2.8 2.8s-1.3 2.8-2.8 2.8-2.8-1.3-2.8-2.8 1.3-2.8 2.8-2.8z" fill="#000000" stroke-width="none" opacity="1"></path><path id="SvgjsPath7254" d="M80.7 93.6c.5 0 1 .4 1 1s-.4 1-1 1-1-.4-1-1 .5-1 1-1zm3.2 4.4c.2 0 .4.2.4.4s-.2.4-.4.4-.4-.2-.4-.4.2-.4.4-.4z" fill="#ffffff" stroke-width="none" opacity="1"></path></g></g></g><g id="svga-group-eyesfront-left"><path id="SvgjsPath7303" d="M70.73 98.03c0 6.9 4.93 12.5 11.02 12.5s11.02-5.6 11.02-12.5-4.93-12.5-11.02-12.5-11.02 5.59-11.02 12.5zm2.88-3.78s4.42-2.71 9.34-1.75c3.29.64 6.2 3.74 6.95 5.03.75 1.28 1.03 3.82 1.03 3.82s-.53-.14-1.11-.32c-.57-.18-2.05-.19-3.39.04-1.89.32-5.46.18-6.45.04-1-.14-3.49-1.07-4.92-2.75-1.41-1.69-1.45-4.11-1.45-4.11z" fill="#f3d4cf" stroke-width="none" opacity="1"></path><path id="SvgjsPath7304" d="M73.27 94.64c-.1.42-.12.84-.06 1.25-.57-.03-1.21.05-1.59.44-.14.14.01.33.18.3.3-.05.58-.2.88-.27.21-.05.42-.06.63-.05.06.21.13.42.22.63-.18.06-.35.14-.5.21-.38.17-.75.42-.99.76-.11.15.09.28.22.22.35-.16.68-.38 1.03-.55.15-.07.32-.12.49-.18.16.28.35.54.56.8-.41.24-.78.58-.9 1.03-.03.1.09.21.19.15.36-.24.65-.57.96-.88 1.11 1.22 2.67 2.16 3.92 2.57 1.88.62 3.93.72 5.89.62 1.85-.09 4.72-1.14 6.43-.21.07.04.13.02.17-.02l.03-.03c.01-.02.02-.04.02-.06 0-.01.01-.01.01-.03-.1-4.06-2.64-7.49-6.4-8.97-2.08-.82-4.37-1.02-6.58-.69-2.59.39-4.87 1.66-7.54 1.44-.23-.02-.34.3-.18.44.9.88 1.89 1.13 2.91 1.08zm.67-.07c1.99-.32 4.11-1.54 6.09-1.68 5.13-.36 10.05 3 10.7 8.24-2.39-.82-5.13-.1-7.59-.15-2.01-.04-4.14-.32-5.91-1.34-2.21-1.28-2.61-2.93-3.29-5.07z" fill="#000000" stroke-width="none" opacity="1"></path></g></g></g><g id="svga-group-eyes-right-move" transform="matrix(1,0,0,1,0,0)"><g id="svga-group-eyes-right"><g id="svga-group-eyesback-right"><path id="SvgjsPath7296" d="M109.1 101.3s.3-2.5 1-3.8 3.7-4.4 7-5c4.9-1 9.3 1.7 9.3 1.7s0 2.4-1.5 4.1c-1.4 1.7-3.9 2.6-4.9 2.7s-4.6.3-6.5 0c-1.3-.2-2.8-.2-3.4 0-.5.2-1 .3-1 .3z" fill="#ffffff" stroke-width="none" opacity="1"></path></g><g id="svga-group-eyesiriswrapper-right" transform="matrix(1,0,0,1,0,0)"><g id="svga-group-eyesiriscontrol-right" transform="matrix(1,0,0,1,0,0)"><g id="svga-group-eyesiris-right"><path id="SvgjsPath7255" d="M118 91.2c2.9 0 5.2 2.3 5.2 5.2s-2.3 5.2-5.2 5.2-5.2-2.3-5.2-5.2 2.3-5.2 5.2-5.2z" fill="#4e60a3" stroke-width="none" opacity="1"></path><path id="SvgjsPath7256" d="M118 101.8c-3 0-5.4-2.4-5.4-5.4S115 91 118 91s5.4 2.4 5.4 5.4-2.4 5.4-5.4 5.4zm0-10.3c-2.7 0-4.9 2.2-4.9 4.9s2.2 4.9 4.9 4.9 4.9-2.2 4.9-4.9-2.2-4.9-4.9-4.9z" fill="#253984" stroke-width="none" opacity="1"></path><path id="SvgjsPath7257" d="M118 93.6c1.5 0 2.8 1.3 2.8 2.8s-1.3 2.8-2.8 2.8-2.8-1.3-2.8-2.8 1.3-2.8 2.8-2.8z" fill="#000000" stroke-width="none" opacity="1"></path><path id="SvgjsPath7258" d="M116.8 93.6c.5 0 1 .4 1 1s-.4 1-1 1-1-.4-1-1 .4-1 1-1zM120 98c.2 0 .4.2.4.4s-.2.4-.4.4-.4-.2-.4-.4.2-.4.4-.4z" fill="#ffffff" stroke-width="none" opacity="1"></path></g></g></g><g id="svga-group-eyesfront-right"><path id="SvgjsPath7305" d="M118.26 85.53c-6.08 0-11.02 5.6-11.02 12.5s4.93 12.5 11.02 12.5 11.02-5.6 11.02-12.5-4.94-12.5-11.02-12.5zm6.67 12.82c-1.43 1.68-3.92 2.6-4.92 2.75-1 .14-4.56.29-6.45-.04-1.34-.23-2.82-.21-3.39-.04-.57.18-1.11.32-1.11.32s.29-2.53 1.03-3.82c.75-1.28 3.66-4.38 6.95-5.03 4.92-.96 9.34 1.75 9.34 1.75s-.03 2.43-1.45 4.11z" fill="#f3d4cf" stroke-width="none" opacity="1"></path><path id="SvgjsPath7308" d="M129.64 93.58c.15-.15.04-.46-.18-.44-2.68.22-4.96-1.05-7.54-1.44-2.21-.33-4.49-.13-6.58.69-3.76 1.48-6.31 4.91-6.4 8.97 0 .01.01.02.01.03 0 .02.01.04.02.06l.03.03c.04.04.1.06.17.02 1.71-.93 4.58.11 6.43.21 1.96.1 4.02-.01 5.89-.62 1.25-.41 2.81-1.35 3.92-2.57.31.31.6.64.96.88.1.06.22-.04.19-.15-.12-.45-.5-.79-.9-1.03.21-.26.4-.52.56-.8.17.06.34.11.49.18.35.17.68.39 1.03.55.13.06.33-.07.22-.22-.25-.34-.61-.59-.99-.76-.15-.07-.32-.15-.5-.21.09-.21.17-.42.22-.63.21 0 .42.01.63.05.3.07.58.21.88.27.17.03.31-.16.18-.3-.38-.39-1.02-.48-1.59-.44.06-.41.04-.83-.06-1.25 1.02.03 2.01-.22 2.91-1.08zm-6.87 6.06c-1.77 1.03-3.9 1.3-5.91 1.34-2.46.05-5.21-.67-7.59.15.65-5.24 5.56-8.6 10.7-8.24 1.98.14 4.1 1.36 6.09 1.68-.68 2.14-1.08 3.79-3.29 5.07z" fill="#000000" stroke-width="none" opacity="1"></path></g></g></g><g id="svga-group-facehighlight-single"></g><g id="svga-group-eyebrows-left-move" transform="matrix(1,0,0,1,0,0)"><g id="svga-group-eyebrows-left-rotate" transform="matrix(1,1.7453292519943295e-9,-1.7453292519943295e-9,1,1.5003287501258455e-7,-1.402671330197336e-7)"><g id="svga-group-eyebrows-left"><path id="SvgjsPath7349" d="M68.8 86s.1 0 0 0c.1-.1.1-.1.1-.2.3-.6.9-1 1.4-1.3.6-.4 1.3-.9 1.9-1.3h.1c1.5-1.1 4-1.3 6-.8 1.9.2 3.8.8 5 1.3.1 0 .2.1.4.1 1.6.3 3.3.6 4.8 1.2 1.5.3 3 .5 4.4 1h.1c.1-.1.4 0 .4.2.1.2.1.4 0 .7.2 0 .3.1.3.3-.1.5-.3.9-.6 1.3v.1c-.3.8-.9 1.1-1.8 1-.1 0-.2 0-.4-.1-.1.1-.2.1-.3.1-1.6-.1-3.2-.8-4.6-1.4-.9-.4-1.9-.8-2.8-1.3-1.4-.2-2.8-.6-4.2-.9-1.3-.3-2.8-.3-4-.8-.4.1-.9.1-1.3.2-.3.1-.6.2-1 .2-1 .3-2.2.8-3.2.9h-.1c-.1 0-.1.1-.2.1-.2.2-.4.4-.7.5-.1 0-.3-.1-.3-.2 0-.5.3-.7.6-.9z" fill="#2a232b" stroke-width="none" opacity="1"></path><path id="SvgjsPath7350" d="M89.9 85.4c1.3.8 1.5 2.8 1.3 4.2 0 .3-.5.3-.6 0-.2-.7-.2-1.4-.3-2.1-.2-.6-.4-1.1-.7-1.7-.1-.3.1-.6.3-.4zm-3.2-.9c2.1.4 3.4 2.9 3.6 4.8 0 .2-.3.2-.3.1-.2-1-.6-1.9-1.2-2.7-.6-.8-1.4-1.3-2.2-2-.1-.1 0-.3.1-.2zM81 83.1c.9.2 1.9 1 2.6 1.7.7.7 1.3 1.5 1.5 2.4 0 .2-.2.3-.3.2-.5-.8-.9-1.6-1.7-2.2-.7-.6-1.6-1-2.2-1.8-.1-.2-.1-.3.1-.3zM76.3 82c2.3 0 4.7 2.1 5.4 4.2.1.2-.2.3-.3.1-.6-.9-1.2-1.8-2.1-2.5-.9-.7-1.9-1-3-1.4-.3-.1-.3-.4 0-.4zm-5.6 2.4c2.1-2.7 6.2-1.8 7.9.8.1.2-.2.4-.3.2-1-.9-2.1-1.9-3.5-2-1.5-.2-2.7.8-3.9 1.3-.3.1-.3-.2-.2-.3z" fill="#3a353a" stroke-width="none" opacity="1"></path><path id="SvgjsPath7351" d="M92.1 90.3c1.6-.4 2-2.2 2-3.7 0-.3-.4-.3-.5-.1-.2.6-.4 1.3-.7 1.8-.3.5-.7.8-1.1 1 .4-1.2.2-2.6-.6-3.7.6.1 1.1.3 1.7.4.2 0 .3-.2.1-.3-2.7-1-5.6-1.6-8.3-2.4-2.4-.7-4.9-1.4-7.3-1.7-4.6-.6-7.6 2.4-10.3 5.7-.1.1-.2.2-.3.2-.4.3 0 .9.4.6 2.5-1.5 5-2.4 7.9-2.4 3.1.1 6.2 1.1 9.2 2.1 1.6.6 3.1 1.2 4.6 1.8 1 .6 2.1 1 3.2.7zm-20-6.8c1-.7 2.1-1 3.1-1.1.8.4 1.6.8 2.3 1.4.5.5.9 1.1 1.3 1.6-.1 0-.2-.1-.4-.1-3.4-.7-6.6-.4-9.5 1 1-1 2-2 3.2-2.8zm19.3 6c-.5 0-1.1-.1-1.7-.3-1.2-.4-2.4-1-3.6-1.5-.2-.1-.4-.1-.6-.2 0-.9-.3-1.8-.9-2.4-.1-.1-.3 0-.2.2.3.7.7 1.4.9 2.1-.8-.3-1.5-.6-2.3-.8-.7-1.5-2.1-3.1-3.6-3.8-.2-.1-.3.2-.2.3.6.6 1.3 1 1.9 1.7.5.5.9 1.1 1.3 1.7-1-.3-1.9-.6-2.9-.8-.2-.8-.9-1.6-1.5-2.1-.4-.4-1-.8-1.5-1.1.9 0 1.9.1 2.8.3 3.8.8 7.6 1.9 11.4 2.8.8 1.2 1 2.5.7 3.9z" fill="#1b141c" stroke-width="none" opacity="1"></path></g></g></g><g id="svga-group-eyebrows-right-move" transform="matrix(1,0,0,1,0,0)"><g id="svga-group-eyebrows-right-rotate" transform="matrix(1,1.7453292519943295e-9,-1.7453292519943295e-9,1,1.5032446754048578e-7,-2.0871141259704018e-7)"><g id="svga-group-eyebrows-right"><path id="SvgjsPath7352" d="M131.2 86s-.1 0 0 0c-.1-.1-.1-.1-.1-.2-.3-.6-.9-1-1.4-1.3-.6-.4-1.3-.9-1.9-1.3h-.1c-1.5-1.1-4-1.3-6-.8-1.9.2-3.8.8-5 1.3-.1 0-.2.1-.4.1-1.6.3-3.3.6-4.8 1.2-1.5.3-3 .5-4.4 1h-.1c-.1-.1-.4 0-.4.2-.1.2-.1.4 0 .7-.2 0-.3.1-.3.3.1.5.3.9.6 1.3v.1c.3.8.9 1.1 1.8 1 .1 0 .2 0 .4-.1.1.1.2.1.3.1 1.6-.1 3.2-.8 4.6-1.4.9-.4 1.9-.8 2.8-1.3 1.4-.2 2.8-.6 4.2-.9 1.3-.3 2.8-.3 4-.8.4.1.9.1 1.3.2.3.1.6.2 1 .2 1 .3 2.2.8 3.2.9h.1c.1 0 .1.1.2.1.2.2.4.4.7.5.1 0 .3-.1.3-.2 0-.5-.3-.7-.6-.9z" fill="#2a232b" stroke-width="none" opacity="1"></path><path id="SvgjsPath7353" d="M110.1 85.4c-1.3.8-1.5 2.8-1.3 4.2 0 .3.5.3.6 0 .2-.7.2-1.4.3-2.1.2-.6.4-1.1.7-1.7.1-.3-.1-.6-.3-.4zm3.2-.9c-2.1.4-3.4 2.9-3.6 4.8 0 .2.3.2.3.1.2-1 .6-1.9 1.2-2.7.6-.8 1.4-1.3 2.2-2 .1-.1 0-.3-.1-.2zm5.7-1.4c-.9.2-1.9 1-2.6 1.7-.7.7-1.3 1.5-1.5 2.4 0 .2.2.3.3.2.5-.8.9-1.6 1.7-2.2.7-.6 1.6-1 2.2-1.8.1-.2.1-.3-.1-.3zm4.7-1.1c-2.3 0-4.7 2.1-5.4 4.2-.1.2.2.3.3.1.6-.9 1.2-1.8 2.1-2.5.9-.7 1.9-1 3-1.4.3-.1.3-.4 0-.4zm5.6 2.4c-2.1-2.7-6.2-1.8-7.9.8-.1.2.2.4.3.2 1-.9 2.1-1.9 3.5-2 1.5-.2 2.7.8 4 1.3.2.1.2-.2.1-.3z" fill="#3a353a" stroke-width="none" opacity="1"></path><path id="SvgjsPath7354" d="M111.1 89.8c1.5-.6 3.1-1.2 4.6-1.8 2.9-1 6.1-2.1 9.2-2.1 2.9-.1 5.5.9 7.9 2.4.4.2.8-.4.4-.6-.1-.1-.2-.2-.4-.2-2.7-3.3-5.7-6.2-10.3-5.7-2.5.3-4.9 1.1-7.3 1.7-2.8.8-5.6 1.4-8.3 2.4-.2.1-.1.3.1.3.6-.1 1.1-.2 1.7-.4-.8 1-1 2.5-.6 3.7-.4-.1-.8-.4-1.1-1-.3-.6-.4-1.2-.7-1.8-.1-.2-.5-.2-.5.1.1 1.4.5 3.2 2 3.7 1.2.1 2.3-.3 3.3-.7zm19.9-3.5c-3-1.4-6.2-1.7-9.5-1-.1 0-.2.1-.4.1.4-.5.8-1.1 1.3-1.6.7-.6 1.5-.9 2.3-1.4 1.1.1 2.1.5 3.1 1.1 1.3.8 2.3 1.8 3.2 2.8zm-21.6-.7c3.8-.9 7.6-2 11.4-2.8 1-.2 1.9-.3 2.8-.3-.6.3-1.1.7-1.5 1.1-.6.5-1.3 1.3-1.5 2.1-1 .2-2 .5-2.9.8.4-.6.8-1.2 1.3-1.7.6-.6 1.3-1.1 1.9-1.7.1-.1 0-.3-.2-.3-1.5.6-2.9 2.2-3.6 3.8-.8.2-1.6.5-2.3.8.2-.7.5-1.4.9-2.1.1-.2-.1-.3-.2-.2-.6.6-.9 1.6-.9 2.4-.2.1-.4.1-.6.2-1.2.5-2.4 1.1-3.6 1.5-.6.2-1.2.4-1.7.3-.4-1.4-.2-2.7.7-3.9z" fill="#1b141c" stroke-width="none" opacity="1"></path></g></g></g><g id="svga-group-nose-single-move" transform="matrix(1,0,0,1,0,0)"><g id="svga-group-nose-single"><path id="SvgjsPath7335" d="M97.72 89.37c-.8 3.33-.91 6.89-1.27 10.29-.38 3.64-1.08 7.4-1.03 11.06 0 .29.45.37.52.07.74-3.34.83-6.91 1.18-10.31.37-3.64 1.05-7.41.93-11.06 0-.19-.28-.24-.33-.05z" fill="#c5796d" stroke-width="none" opacity="1" transform="translate(0 2)"></path><path id="SvgjsPath7336" d="M94.71 108.8c-.98 1.31-1.8 2.73-2.52 4.2-.46.95-1.04 2.07-.73 3.16.5 1.8 2.79 2.36 4.28 1.51.44-.26.24-.95-.26-.95-.87-.01-1.89.27-2.58-.47-.84-.89-.01-2.5.36-3.4.55-1.32 1.22-2.59 1.74-3.92.07-.19-.19-.26-.29-.13z" fill="#c5796d" stroke-width="none" opacity="1" transform="translate(0 2)"></path><path id="SvgjsPath7337" d="M94.57 116.21c2.7-.2 3.21 3.2 5.78 3.28 2.2.07 2.37-3.24 4.46-3.14.24.01.32-.33.12-.45-2.37-1.4-2.81 2.72-4.99 2.46-1.29-.15-2.21-2.05-3.37-2.6-.79-.37-1.36-.34-2.13.01-.19.11-.09.46.13.44z" fill="#c5796d" stroke-width="none" opacity="1" transform="translate(0 2)"></path><path id="SvgjsPath7338" d="M104.07 117.75c1.78.4 3.85-.15 4.27-2.13.21-.99-.12-1.97-.64-2.81-.84-1.37-1.93-2.53-2.73-3.95-.13-.24-.47-.12-.48.13-.1 1.59 1.08 2.69 1.92 3.92.78 1.13 1.45 2.69.14 3.81-.6.51-1.74.42-2.48.56-.24.05-.23.42 0 .47z" fill="#c5796d" stroke-width="none" opacity="1" transform="translate(0 2)"></path><path id="SvgjsPath7339" d="M102.32 112.41c-.39-.7-1.4-.81-1.96-.25-.05.05-.23.28-.28.34-.06.08-.19.25-.21.28-.06.1-.12.2-.17.3l-.11.26c0-.01-.01.01-.03.05-.06.06-.12.13-.17.19-.17.18-.34.36-.48.57-.4.63-.08 1.35.46 1.75.83.62 2.03.12 2.61-.58.7-.84.89-1.92.34-2.91z" fill="#fbe5e2" stroke-width="none" opacity="1" transform="translate(0 2)"></path></g></g><g id="svga-group-hair-front"><path id="SvgjsPath8276" d="M143.1 79.3c-.9 7.7-2.8 15-4.8 18.6 0 0-.3-14.3-3.7-21.1S121.2 62.2 120 56.5c0 0 1.5 3.3 3.8 4.7s10.3 7.6 12.2 9.7 5 7.3 6.3 8c.1.1.5.2.8.4zm-76.2 56.4c0 .6-.2 2.2-.5 4.5-.7-6.6-2.1-13.9-2.1-13.9s-30.2 44.5-26.2 59.2c4 14.7 12.1 24.9 12.9 25.7.8.8 4 1.9 5.4 4.5.5 1 10.5-8.8 5.6-20.6-4.8-11.8-5.9-19.8-1.9-26 .7-1.1 1.3-2.3 1.9-3.5-.8 4.3-1.5 7.7-1.7 8.7-.9 3.5-.9 8.5 1.5 14s6.1 5.8 6.1 5.8c-1.7-2.7-1.8-7.3-.2-12.1s4.2-9.5 5.6-14.5c1.5-5.2 2.2-11.4-2.7-21.7-2.7-6.1-3.7-10.1-3.7-10.1z" fill="#d6ccab" stroke-width="none" opacity="1"></path><path id="SvgjsPath8277" d="M120 56.5s-18.2 6.8-32.8 1.7-24 15.1-22.8 27.1 9.4 27.7 4.6 47.1c-4.8 19.4-18.8 34.2-22.8 42.8s-4 17.4 0 23.7 6 10.8 7.1 17.4c0 0-1.5-3.6-7.4-8-9.3-6.9-13.1-15.1-12.5-27.9s6.2-22.8 11.1-33.1c4.8-10.3 7.3-23.3 3.9-31.9-3.4-8.6-7.3-20.5-5.9-41.7 1.4-21.1 13.1-32.4 27.7-41s35.7-7 49.1 1.3 11.4 15.7 11.4 15.7 4-2 10 7.1 2 33.4-2.3 41.1c0 0-.3-14.3-3.7-21.1S121.2 62.2 120 56.5z" fill="#ded6bc" stroke-width="none" opacity="1"></path><path id="SvgjsPath8278" d="M127.6 50.2c-2.3 1.5-4.7 1.5-6.1.8-4.1-1.8-7.4-8-10.8-11.7-5.7-6.2-7.2-9.4-20.3-10.1-9.3-.5-16.7 1.9-21 3.8-14.2 8.5-25.5 19.8-26.9 40.6-1.4 21.1 2.4 33.1 5.9 41.7s.9 21.6-3.9 31.9c-4.8 10.3-10.5 20.3-11.1 33.1s3.3 21 12.5 27.9c5.9 4.4 7.4 8 7.4 8-1.6-4.5-4-6.3-8.7-10.6-4.8-4.3-9.4-16.4-8.4-25.6s9.7-25 13.8-31.4c4.1-6.4 7.4-17.4 8.8-23.3 1.4-5.9.2-10.8-3.9-20.9s-6.3-36.5-5.6-41c1.1-8.3 3.1-14 9.4-20.6 9.4-9.8 21.6-11.3 28.9-11.4 11.8-.1 20 7.7 21.5 9.9s10.5 11.9 12.8 12.3c2.3.4 8-3.4 8-3.4l.7-.6s.3-1 0-2.6c-.5.9-1.5 2.2-3 3.2zM102.2 60c.3 0 .7 0 1-.1.2 0 .5 0 .8-.1.4 0 .9-.1 1.3-.1.2 0 .5-.1.8-.1.3 0 .7-.1 1-.1.3 0 .6-.1.9-.1.3 0 .6-.1.9-.1.2 0 .4-.1.6-.1.4-.1.8-.2 1.2-.2.2 0 .4-.1.6-.1.4-.1.8-.2 1.1-.2.2 0 .3-.1.4-.1.3-.1.6-.2.9-.2.1 0 .2 0 .3-.1.4-.1.8-.2 1.1-.3.1 0 .2 0 .3-.1.4-.1.7-.2 1.1-.3 2.2-.6 3.5-1.1 3.5-1.1s-5 .6-10.9-5.5c-2.3-3.7-6.1-10.5-12-12.8-6.8-2.7-29.5-3.9-37.2 12.5s-2.7 30.5.6 37.4c3.3 6.9 8.5 20.1 8.3 28.7-.2 8.7-2.3 21-4.6 26.4-2.3 5.4-17.6 24.4-20.8 33.3-3.3 9.3-4.4 15.6 3.5 28.3 3 4.9 5 6.3 5.8 8.1-1.2-5-3.1-9-6.5-14.2-4-6.3-4-15.1 0-23.7s18-23.4 22.8-42.8-3.4-35.1-4.6-47.1S72.7 52.9 87.2 58c1.9.7 3.9 1.1 5.8 1.4h.1c.2 0 .4.1.7.1.4 0 .8.1 1.2.1.3 0 .6 0 .8.1.4 0 .8.1 1.3.1h4.1c.3.3.7.3 1 .2z" fill="#d6ccab" stroke-width="none" opacity="1"></path><path id="SvgjsPath8279" d="M63.3 148.6s-2.6 6.6-9.3 14.7c-8.9 10.7-10.7 17.4-7.4 25.8 3.3 8.4 7.8 12.8 9.3 16.5s1.1 7.6 1.1 7.6 1.9-4.1 1.1-7.2c-.7-3.1-7.4-13.9-8.4-20s.1-12.9 4.2-18.7c3.5-4.9 7.6-11.6 9.4-18.7zm1.9 1.5s-2.5 11.6-6 17.4c-3.5 5.8-4.6 13-2 19.1 2.6 6.1 7.6 14.1 7.2 19.4 0 0 3.4-6.4.2-13s-4.3-16.4-1.7-23.1c2.6-6.6 2.9-15.2 2.3-19.8z" fill="#ded6bc" stroke-width="none" opacity="1"></path><path id="SvgjsPath8280" d="M93.1 59.7c.3 0 .5.1.7.1.4 0 .8.1 1.2.1.3 0 .6 0 .8.1.4 0 .8.1 1.3.1h1.5c-2.4-1-5.2-2.6-7.6-5.4-4.8-5.9-8.5-8.6-16.2-7.8S59 58.1 59.5 69c.5 10.8 4 17.7 6.2 23.6-.6-2.6-1.1-5-1.3-7.3-1.1-12 8.3-32.2 22.8-27.1 2 .7 3.9 1.1 5.9 1.5z" fill="#cfc29a" stroke-width="none" opacity="1"></path></g><g id="svga-group-glasses-single-move" transform="matrix(1,0,0,1,0,0)"><g id="svga-group-glasses-single"></g></g></g></g></g><rect id="svga-credit-rect" width="200" height="15" x="0" y="185" fill="#ecf0f1" opacity="0.5" style="display: none;"></rect><text id="svga-credit-text" font-family="Avenir Next, Roboto, Helvetica, Arial, sans-serif" font-size="10px" text-anchor="start" font-weight="400" size="10px" anchor="start" weight="400" fill="#333333" x="33.40447998046875" y="182.60824704170227" style="display: none;"><tspan id="SvgjsTspan7165" dy="13" x="33.40447998046875">Created on AvatarMaker.com</tspan></text></g><defs id="SvgjsDefs7117"></defs></svg>